<?xml version="1.0" encoding="iso-8859-1"?>
<!-- Uploaded to: SVG Repo, www.svgrepo.com, Generator: SVG Repo Mixer Tools -->
<svg version="1.1" id="Layer_1" xmlns="http://www.w3.org/2000/svg" xmlns:xlink="http://www.w3.org/1999/xlink" 
	 viewBox="0 0 511.98 511.98" xml:space="preserve">
<path style="fill:#434A54;" d="M343.128,0H76.466c-23.531,0-42.67,19.14-42.67,42.663v319.98c0,5.906,4.781,10.687,10.671,10.687
	h277.317c5.891,0,10.672-4.78,10.672-10.687v-21.312h10.672c5.875,0,10.656-4.781,10.656-10.688V10.664
	C353.784,4.773,349.003,0,343.128,0z"/>
<path style="fill:#AAB2BC;" d="M76.466,0c-23.531,0-42.67,19.14-42.67,42.663v319.98c0,5.906,4.781,10.687,10.671,10.687h25.358
	l27.967-29.248v-18.749v-5.344V0H76.466z"/>
<path style="fill:#E6E9ED;" d="M76.466,330.643c-17.671,0-31.999,14.344-31.999,31.999c0,17.687,14.328,31.998,31.999,31.998h255.99
	v-63.997L76.466,330.643L76.466,330.643z"/>
<path style="fill:#656D78;" d="M332.456,405.327H76.466c-23.531,0-42.67-19.154-42.67-42.685c0-23.515,19.14-42.654,42.67-42.654
	h255.99c5.891,0,10.672,4.781,10.672,10.655v63.997C343.128,400.547,338.346,405.327,332.456,405.327z M76.466,341.331
	c-11.766,0-21.328,9.562-21.328,21.312c0,11.78,9.562,21.343,21.328,21.343h245.318v-42.654H76.466V341.331z"/>
<g>
	<path style="fill:#CCD1D9;" d="M172.462,373.329H87.137c-5.906,0-10.671-4.78-10.671-10.687c0-5.875,4.765-10.656,10.671-10.656
		h85.325c5.89,0,10.671,4.781,10.671,10.656C183.134,368.549,178.352,373.329,172.462,373.329z"/>
	<path style="fill:#CCD1D9;" d="M76.466,405.327h21.327v-21.342H76.466c-11.766,0-21.328-9.562-21.328-21.343
		c0-11.75,9.562-21.312,21.328-21.312h21.327v-21.343H76.466c-23.531,0-42.67,19.14-42.67,42.654
		C33.796,386.173,52.935,405.327,76.466,405.327z"/>
</g>
<path style="fill:#ED5564;" d="M161.79,362.642H97.793H87.137v10.687v4.641v59.357c0,3.406,1.641,6.64,4.421,8.64
	c2.781,2.016,6.359,2.547,9.609,1.469l28.624-9.546l28.624,9.546c1.109,0.359,2.25,0.547,3.375,0.547
	c2.219,0,4.406-0.688,6.25-2.016c2.781-2,4.422-5.233,4.422-8.64V377.97v-4.641v-10.687H161.79z"/>
<g>
	<rect x="279.13" y="337.33" style="fill:#DBADA2;" width="106.65" height="154.65"/>
	<path style="fill:#DBADA2;" d="M468.122,233.288c-10.249-6.703-24.015-3.82-30.718,6.445l-119.886,113.16l92.122,9.906
		l64.919-98.801C481.277,253.74,478.387,239.983,468.122,233.288z"/>
</g>
<g>
	<path style="fill:#EAC6BB;" d="M407.125,85.332c-11.781,0-21.344,9.547-21.344,21.327v196.672h42.67V106.659
		C428.451,94.879,418.905,85.332,407.125,85.332z"/>
	<path style="fill:#EAC6BB;" d="M353.784,63.998c-11.781,0-21.328,9.554-21.328,21.334V255.99h42.669V85.332
		C375.125,73.552,365.563,63.998,353.784,63.998z"/>
	<path style="fill:#EAC6BB;" d="M300.457,63.998c-11.78,0-21.327,9.554-21.327,21.334V255.99h42.654V85.332
		C321.784,73.552,312.238,63.998,300.457,63.998z"/>
	<path style="fill:#EAC6BB;" d="M247.131,127.995c-11.781,0-21.343,9.554-21.343,21.335v154.001h42.67V149.33
		C268.458,137.549,258.911,127.995,247.131,127.995z"/>
	<path style="fill:#EAC6BB;" d="M385.781,221.358v7.969c0,2.945-2.375,5.328-5.328,5.328s-5.328-2.383-5.328-5.328v-14.593
		c-12.811-6.906-27.294-11.14-42.669-11.937v26.53c0,2.945-2.391,5.328-5.328,5.328c-2.953,0-5.344-2.383-5.344-5.328v-26.53
		c-15.374,0.797-29.842,5.031-42.654,11.937v14.593c0,2.945-2.406,5.328-5.344,5.328s-5.328-2.383-5.328-5.328v-7.969
		c-25.827,18.367-42.67,48.53-42.67,82.63c0,55.967,45.373,101.339,101.34,101.339c55.95,0,101.323-45.372,101.323-101.339
		C428.451,269.888,411.608,239.725,385.781,221.358z"/>
</g>
<path style="fill:#ED5564;" d="M396.562,511.98v-74.653c0-5.906-4.781-10.688-10.656-10.688H279.005
	c-5.891,0-10.656,4.781-10.656,10.688v74.653H396.562z"/>
</svg>