<svg width="286" height="400" viewBox="0 0 286 400" fill="none" xmlns="http://www.w3.org/2000/svg">
<path d="M274.969 0.348933L37.9299 1.15138C17.0129 1.22219 0.0575967 18.2936 0.128383 39.2035L1.09128 323.638C1.10905 328.888 5.37333 333.123 10.609 333.106L257.12 332.271C262.356 332.253 266.592 327.99 266.574 322.739L266.51 303.795L275.996 303.763C281.219 303.745 285.454 299.481 285.437 294.23L284.474 9.79624C284.456 4.55965 280.192 0.331253 274.969 0.348933Z" fill="#434A54"/>
<path d="M37.9299 1.15138C17.0129 1.22219 0.0575967 18.2936 0.128383 39.2035L1.09128 323.638C1.10905 328.888 5.37333 333.123 10.609 333.106L33.1501 333.029L57.9223 306.946L57.8659 290.28L57.8498 285.53L56.8869 1.08721L37.9299 1.15138Z" fill="#AAB2BC"/>
<path d="M38.9249 295.064C23.2169 295.117 10.5238 307.911 10.5769 323.604C10.6301 339.327 23.4095 352.005 39.1175 351.952L266.67 351.181L266.478 294.294L38.9249 295.064Z" fill="#E6E9ED"/>
<path d="M266.703 360.681L39.1496 361.452C18.2326 361.523 1.16206 344.554 1.09125 323.637C1.02048 302.734 17.9767 285.664 38.8928 285.593L266.446 284.822C271.682 284.805 275.947 289.04 275.964 294.262L276.157 351.149C276.175 356.4 271.938 360.664 266.703 360.681ZM38.957 304.565C28.4981 304.6 20.0271 313.129 20.0624 323.574C20.0979 334.045 28.6265 342.517 39.0854 342.481L257.152 341.743L257.023 303.828L38.9571 304.566L38.957 304.565Z" fill="#656D78"/>
<path d="M124.385 332.718L48.5388 332.975C43.2889 332.993 39.0389 328.758 39.0211 323.507C39.0034 318.285 43.2247 314.021 48.4746 314.003L124.321 313.746C129.557 313.729 133.821 317.964 133.839 323.186C133.857 328.437 129.621 332.701 124.385 332.718Z" fill="#CCD1D9"/>
<path d="M39.1495 361.451L58.1074 361.387L58.0431 342.416L39.0853 342.48C28.6263 342.515 20.0978 334.044 20.0623 323.572C20.027 313.127 28.498 304.599 38.9569 304.563L57.9148 304.499L57.8505 285.527L38.8927 285.591C17.9757 285.662 1.02037 302.734 1.09112 323.635C1.16194 344.553 18.2325 361.522 39.1495 361.451Z" fill="#CCD1D9"/>
<path d="M114.867 323.252L57.9791 323.444L48.5068 323.477L48.539 332.976L48.553 337.102L48.7316 389.865C48.7418 392.893 50.2103 395.763 52.6875 397.532C55.1656 399.316 58.3477 399.777 61.2335 398.809L86.649 390.237L112.122 398.637C113.109 398.952 114.124 399.116 115.124 399.113C117.096 399.106 119.038 398.488 120.673 397.302C123.139 395.516 124.588 392.637 124.578 389.608L124.399 336.845L124.386 332.72L124.353 323.22L114.867 323.252Z" fill="#ED5564"/>
</svg>
